<svg xmlns="http://www.w3.org/2000/svg" xmlns:xlink="http://www.w3.org/1999/xlink" width="500" zoomAndPan="magnify" viewBox="0 0 375 374.999991" height="500" preserveAspectRatio="xMidYMid meet" version="1.0"><defs><g/><clipPath id="3cdfd60c26"><path d="M 149.550781 104.96875 L 187 104.96875 L 187 209 L 149.550781 209 Z M 149.550781 104.96875 " clip-rule="nonzero"/></clipPath><clipPath id="4460e47d78"><path d="M 191 125 L 229 125 L 229 228.71875 L 191 228.71875 Z M 191 125 " clip-rule="nonzero"/></clipPath><clipPath id="641d02d9c2"><path d="M 241 108 L 247.800781 108 L 247.800781 116 L 241 116 Z M 241 108 " clip-rule="nonzero"/></clipPath><clipPath id="a60489db17"><path d="M 167 53 L 208 53 L 208 94 L 167 94 Z M 167 53 " clip-rule="nonzero"/></clipPath><clipPath id="d833a84a74"><path d="M 214.933594 78.425781 L 182.5625 101.175781 L 159.808594 68.808594 L 192.179688 46.054688 Z M 214.933594 78.425781 " clip-rule="nonzero"/></clipPath><clipPath id="4723dd27b2"><path d="M 198.75 89.800781 C 207.6875 83.515625 209.839844 71.175781 203.558594 62.238281 C 197.273438 53.300781 184.933594 51.148438 175.996094 57.429688 C 167.054688 63.714844 164.902344 76.054688 171.1875 84.992188 C 177.46875 93.929688 189.808594 96.085938 198.75 89.800781 Z M 198.75 89.800781 " clip-rule="nonzero"/></clipPath><clipPath id="326ca936a7"><path d="M 214.933594 78.425781 L 182.5625 101.175781 L 159.808594 68.808594 L 192.179688 46.054688 Z M 214.933594 78.425781 " clip-rule="nonzero"/></clipPath><clipPath id="e719abe753"><path d="M 214.933594 78.425781 L 182.5625 101.175781 L 159.808594 68.808594 L 192.179688 46.054688 Z M 214.933594 78.425781 " clip-rule="nonzero"/></clipPath><linearGradient x1="-74.526332" gradientTransform="matrix(-0.126446, 0.0888818, -0.0888818, -0.126446, 214.934069, 78.423948)" y1="128" x2="330.526262" gradientUnits="userSpaceOnUse" y2="128" id="bd62906d04"><stop stop-opacity="1" stop-color="rgb(22.399902%, 20.799255%, 21.199036%)" offset="0"/><stop stop-opacity="1" stop-color="rgb(22.399902%, 20.799255%, 21.199036%)" offset="0.125"/><stop stop-opacity="1" stop-color="rgb(22.399902%, 20.799255%, 21.199036%)" offset="0.15625"/><stop stop-opacity="1" stop-color="rgb(22.399902%, 20.799255%, 21.199036%)" offset="0.171875"/><stop stop-opacity="1" stop-color="rgb(22.399902%, 20.799255%, 21.199036%)" offset="0.179688"/><stop stop-opacity="1" stop-color="rgb(22.615051%, 20.898438%, 21.22345%)" offset="0.183594"/><stop stop-opacity="1" stop-color="rgb(22.8302%, 20.999146%, 21.24939%)" offset="0.1875"/><stop stop-opacity="1" stop-color="rgb(23.309326%, 21.221924%, 21.304321%)" offset="0.191406"/><stop stop-opacity="1" stop-color="rgb(23.789978%, 21.446228%, 21.360779%)" offset="0.195312"/><stop stop-opacity="1" stop-color="rgb(24.269104%, 21.669006%, 21.41571%)" offset="0.199219"/><stop stop-opacity="1" stop-color="rgb(24.74823%, 21.891785%, 21.472168%)" offset="0.203125"/><stop stop-opacity="1" stop-color="rgb(25.227356%, 22.114563%, 21.5271%)" offset="0.207031"/><stop stop-opacity="1" stop-color="rgb(25.708008%, 22.338867%, 21.583557%)" offset="0.210938"/><stop stop-opacity="1" stop-color="rgb(26.187134%, 22.561646%, 21.638489%)" offset="0.214844"/><stop stop-opacity="1" stop-color="rgb(26.66626%, 22.784424%, 21.694946%)" offset="0.21875"/><stop stop-opacity="1" stop-color="rgb(27.145386%, 23.007202%, 21.749878%)" offset="0.222656"/><stop stop-opacity="1" stop-color="rgb(27.626038%, 23.231506%, 21.80481%)" offset="0.226562"/><stop stop-opacity="1" stop-color="rgb(28.105164%, 23.454285%, 21.859741%)" offset="0.230469"/><stop stop-opacity="1" stop-color="rgb(28.585815%, 23.677063%, 21.916199%)" offset="0.234375"/><stop stop-opacity="1" stop-color="rgb(29.064941%, 23.899841%, 21.97113%)" offset="0.238281"/><stop stop-opacity="1" stop-color="rgb(29.544067%, 24.12262%, 22.027588%)" offset="0.242188"/><stop stop-opacity="1" stop-color="rgb(30.023193%, 24.345398%, 22.08252%)" offset="0.246094"/><stop stop-opacity="1" stop-color="rgb(30.503845%, 24.569702%, 22.138977%)" offset="0.25"/><stop stop-opacity="1" stop-color="rgb(30.982971%, 24.79248%, 22.193909%)" offset="0.253906"/><stop stop-opacity="1" stop-color="rgb(31.463623%, 25.015259%, 22.250366%)" offset="0.257812"/><stop stop-opacity="1" stop-color="rgb(31.942749%, 25.238037%, 22.305298%)" offset="0.261719"/><stop stop-opacity="1" stop-color="rgb(32.421875%, 25.462341%, 22.361755%)" offset="0.265625"/><stop stop-opacity="1" stop-color="rgb(32.901001%, 25.68512%, 22.416687%)" offset="0.269531"/><stop stop-opacity="1" stop-color="rgb(33.381653%, 25.907898%, 22.473145%)" offset="0.273438"/><stop stop-opacity="1" stop-color="rgb(33.860779%, 26.130676%, 22.528076%)" offset="0.277344"/><stop stop-opacity="1" stop-color="rgb(34.341431%, 26.35498%, 22.584534%)" offset="0.28125"/><stop stop-opacity="1" stop-color="rgb(34.820557%, 26.577759%, 22.639465%)" offset="0.285156"/><stop stop-opacity="1" stop-color="rgb(35.299683%, 26.800537%, 22.695923%)" offset="0.289062"/><stop stop-opacity="1" stop-color="rgb(35.778809%, 27.023315%, 22.750854%)" offset="0.292969"/><stop stop-opacity="1" stop-color="rgb(36.25946%, 27.24762%, 22.807312%)" offset="0.296875"/><stop stop-opacity="1" stop-color="rgb(36.738586%, 27.470398%, 22.862244%)" offset="0.300781"/><stop stop-opacity="1" stop-color="rgb(37.217712%, 27.693176%, 22.918701%)" offset="0.304688"/><stop stop-opacity="1" stop-color="rgb(37.696838%, 27.915955%, 22.973633%)" offset="0.308594"/><stop stop-opacity="1" stop-color="rgb(38.17749%, 28.138733%, 23.028564%)" offset="0.3125"/><stop stop-opacity="1" stop-color="rgb(38.656616%, 28.361511%, 23.083496%)" offset="0.316406"/><stop stop-opacity="1" stop-color="rgb(39.137268%, 28.585815%, 23.139954%)" offset="0.320312"/><stop stop-opacity="1" stop-color="rgb(39.616394%, 28.808594%, 23.194885%)" offset="0.324219"/><stop stop-opacity="1" stop-color="rgb(40.09552%, 29.031372%, 23.251343%)" offset="0.328125"/><stop stop-opacity="1" stop-color="rgb(40.574646%, 29.25415%, 23.306274%)" offset="0.332031"/><stop stop-opacity="1" stop-color="rgb(41.055298%, 29.478455%, 23.362732%)" offset="0.335938"/><stop stop-opacity="1" stop-color="rgb(41.534424%, 29.701233%, 23.417664%)" offset="0.339844"/><stop stop-opacity="1" stop-color="rgb(42.015076%, 29.924011%, 23.474121%)" offset="0.34375"/><stop stop-opacity="1" stop-color="rgb(42.494202%, 30.14679%, 23.529053%)" offset="0.347656"/><stop stop-opacity="1" stop-color="rgb(42.973328%, 30.371094%, 23.58551%)" offset="0.351562"/><stop stop-opacity="1" stop-color="rgb(43.452454%, 30.593872%, 23.640442%)" offset="0.355469"/><stop stop-opacity="1" stop-color="rgb(43.933105%, 30.81665%, 23.696899%)" offset="0.359375"/><stop stop-opacity="1" stop-color="rgb(44.412231%, 31.039429%, 23.751831%)" offset="0.363281"/><stop stop-opacity="1" stop-color="rgb(44.892883%, 31.263733%, 23.808289%)" offset="0.367188"/><stop stop-opacity="1" stop-color="rgb(45.372009%, 31.486511%, 23.86322%)" offset="0.371094"/><stop stop-opacity="1" stop-color="rgb(45.851135%, 31.70929%, 23.919678%)" offset="0.375"/><stop stop-opacity="1" stop-color="rgb(46.330261%, 31.932068%, 23.974609%)" offset="0.378906"/><stop stop-opacity="1" stop-color="rgb(46.810913%, 32.156372%, 24.031067%)" offset="0.382812"/><stop stop-opacity="1" stop-color="rgb(47.290039%, 32.37915%, 24.085999%)" offset="0.386719"/><stop stop-opacity="1" stop-color="rgb(47.770691%, 32.601929%, 24.142456%)" offset="0.390625"/><stop stop-opacity="1" stop-color="rgb(48.249817%, 32.824707%, 24.197388%)" offset="0.394531"/><stop stop-opacity="1" stop-color="rgb(48.728943%, 33.047485%, 24.252319%)" offset="0.398438"/><stop stop-opacity="1" stop-color="rgb(49.208069%, 33.270264%, 24.307251%)" offset="0.402344"/><stop stop-opacity="1" stop-color="rgb(49.688721%, 33.494568%, 24.363708%)" offset="0.40625"/><stop stop-opacity="1" stop-color="rgb(50.167847%, 33.717346%, 24.41864%)" offset="0.410156"/><stop stop-opacity="1" stop-color="rgb(50.646973%, 33.940125%, 24.475098%)" offset="0.414062"/><stop stop-opacity="1" stop-color="rgb(51.126099%, 34.162903%, 24.530029%)" offset="0.417969"/><stop stop-opacity="1" stop-color="rgb(51.60675%, 34.387207%, 24.586487%)" offset="0.421875"/><stop stop-opacity="1" stop-color="rgb(52.085876%, 34.609985%, 24.641418%)" offset="0.425781"/><stop stop-opacity="1" stop-color="rgb(52.566528%, 34.832764%, 24.697876%)" offset="0.429688"/><stop stop-opacity="1" stop-color="rgb(53.045654%, 35.055542%, 24.752808%)" offset="0.433594"/><stop stop-opacity="1" stop-color="rgb(53.52478%, 35.279846%, 24.809265%)" offset="0.4375"/><stop stop-opacity="1" stop-color="rgb(54.003906%, 35.502625%, 24.864197%)" offset="0.441406"/><stop stop-opacity="1" stop-color="rgb(54.484558%, 35.725403%, 24.920654%)" offset="0.445312"/><stop stop-opacity="1" stop-color="rgb(54.963684%, 35.948181%, 24.975586%)" offset="0.449219"/><stop stop-opacity="1" stop-color="rgb(55.444336%, 36.172485%, 25.032043%)" offset="0.453125"/><stop stop-opacity="1" stop-color="rgb(55.923462%, 36.395264%, 25.086975%)" offset="0.457031"/><stop stop-opacity="1" stop-color="rgb(56.402588%, 36.618042%, 25.143433%)" offset="0.460938"/><stop stop-opacity="1" stop-color="rgb(56.881714%, 36.84082%, 25.198364%)" offset="0.464844"/><stop stop-opacity="1" stop-color="rgb(57.362366%, 37.063599%, 25.254822%)" offset="0.46875"/><stop stop-opacity="1" stop-color="rgb(57.841492%, 37.286377%, 25.309753%)" offset="0.472656"/><stop stop-opacity="1" stop-color="rgb(58.322144%, 37.510681%, 25.366211%)" offset="0.476562"/><stop stop-opacity="1" stop-color="rgb(58.80127%, 37.733459%, 25.421143%)" offset="0.480469"/><stop stop-opacity="1" stop-color="rgb(59.280396%, 37.956238%, 25.476074%)" offset="0.484375"/><stop stop-opacity="1" stop-color="rgb(59.759521%, 38.179016%, 25.531006%)" offset="0.488281"/><stop stop-opacity="1" stop-color="rgb(60.240173%, 38.40332%, 25.587463%)" offset="0.492188"/><stop stop-opacity="1" stop-color="rgb(60.719299%, 38.626099%, 25.642395%)" offset="0.496094"/><stop stop-opacity="1" stop-color="rgb(61.199951%, 38.848877%, 25.698853%)" offset="0.5"/><stop stop-opacity="1" stop-color="rgb(61.679077%, 39.071655%, 25.753784%)" offset="0.503906"/><stop stop-opacity="1" stop-color="rgb(62.158203%, 39.295959%, 25.810242%)" offset="0.507812"/><stop stop-opacity="1" stop-color="rgb(62.637329%, 39.518738%, 25.865173%)" offset="0.511719"/><stop stop-opacity="1" stop-color="rgb(63.117981%, 39.741516%, 25.921631%)" offset="0.515625"/><stop stop-opacity="1" stop-color="rgb(63.597107%, 39.964294%, 25.976562%)" offset="0.519531"/><stop stop-opacity="1" stop-color="rgb(64.076233%, 40.188599%, 26.03302%)" offset="0.523438"/><stop stop-opacity="1" stop-color="rgb(64.555359%, 40.411377%, 26.087952%)" offset="0.527344"/><stop stop-opacity="1" stop-color="rgb(65.036011%, 40.634155%, 26.144409%)" offset="0.53125"/><stop stop-opacity="1" stop-color="rgb(65.515137%, 40.856934%, 26.199341%)" offset="0.535156"/><stop stop-opacity="1" stop-color="rgb(65.995789%, 41.079712%, 26.255798%)" offset="0.539062"/><stop stop-opacity="1" stop-color="rgb(66.474915%, 41.30249%, 26.31073%)" offset="0.542969"/><stop stop-opacity="1" stop-color="rgb(66.954041%, 41.526794%, 26.367188%)" offset="0.546875"/><stop stop-opacity="1" stop-color="rgb(67.433167%, 41.749573%, 26.422119%)" offset="0.550781"/><stop stop-opacity="1" stop-color="rgb(67.913818%, 41.972351%, 26.478577%)" offset="0.554688"/><stop stop-opacity="1" stop-color="rgb(68.392944%, 42.195129%, 26.533508%)" offset="0.558594"/><stop stop-opacity="1" stop-color="rgb(68.873596%, 42.419434%, 26.589966%)" offset="0.5625"/><stop stop-opacity="1" stop-color="rgb(69.352722%, 42.642212%, 26.644897%)" offset="0.566406"/><stop stop-opacity="1" stop-color="rgb(69.831848%, 42.86499%, 26.699829%)" offset="0.570312"/><stop stop-opacity="1" stop-color="rgb(70.310974%, 43.087769%, 26.754761%)" offset="0.574219"/><stop stop-opacity="1" stop-color="rgb(70.791626%, 43.312073%, 26.811218%)" offset="0.578125"/><stop stop-opacity="1" stop-color="rgb(71.270752%, 43.534851%, 26.86615%)" offset="0.582031"/><stop stop-opacity="1" stop-color="rgb(71.751404%, 43.757629%, 26.922607%)" offset="0.585938"/><stop stop-opacity="1" stop-color="rgb(72.23053%, 43.980408%, 26.977539%)" offset="0.589844"/><stop stop-opacity="1" stop-color="rgb(72.709656%, 44.204712%, 27.033997%)" offset="0.59375"/><stop stop-opacity="1" stop-color="rgb(73.188782%, 44.42749%, 27.088928%)" offset="0.597656"/><stop stop-opacity="1" stop-color="rgb(73.669434%, 44.650269%, 27.145386%)" offset="0.601562"/><stop stop-opacity="1" stop-color="rgb(74.14856%, 44.873047%, 27.200317%)" offset="0.605469"/><stop stop-opacity="1" stop-color="rgb(74.629211%, 45.097351%, 27.256775%)" offset="0.609375"/><stop stop-opacity="1" stop-color="rgb(75.108337%, 45.320129%, 27.311707%)" offset="0.613281"/><stop stop-opacity="1" stop-color="rgb(75.587463%, 45.542908%, 27.368164%)" offset="0.617188"/><stop stop-opacity="1" stop-color="rgb(76.066589%, 45.765686%, 27.423096%)" offset="0.621094"/><stop stop-opacity="1" stop-color="rgb(76.547241%, 45.988464%, 27.479553%)" offset="0.625"/><stop stop-opacity="1" stop-color="rgb(77.026367%, 46.211243%, 27.534485%)" offset="0.628906"/><stop stop-opacity="1" stop-color="rgb(77.505493%, 46.435547%, 27.590942%)" offset="0.632812"/><stop stop-opacity="1" stop-color="rgb(77.984619%, 46.658325%, 27.645874%)" offset="0.636719"/><stop stop-opacity="1" stop-color="rgb(78.465271%, 46.881104%, 27.702332%)" offset="0.640625"/><stop stop-opacity="1" stop-color="rgb(78.944397%, 47.103882%, 27.757263%)" offset="0.644531"/><stop stop-opacity="1" stop-color="rgb(79.425049%, 47.328186%, 27.813721%)" offset="0.648438"/><stop stop-opacity="1" stop-color="rgb(79.904175%, 47.550964%, 27.868652%)" offset="0.652344"/><stop stop-opacity="1" stop-color="rgb(80.383301%, 47.773743%, 27.923584%)" offset="0.65625"/><stop stop-opacity="1" stop-color="rgb(80.862427%, 47.996521%, 27.978516%)" offset="0.660156"/><stop stop-opacity="1" stop-color="rgb(81.343079%, 48.220825%, 28.034973%)" offset="0.664062"/><stop stop-opacity="1" stop-color="rgb(81.822205%, 48.443604%, 28.089905%)" offset="0.667969"/><stop stop-opacity="1" stop-color="rgb(82.302856%, 48.666382%, 28.146362%)" offset="0.671875"/><stop stop-opacity="1" stop-color="rgb(82.781982%, 48.88916%, 28.201294%)" offset="0.675781"/><stop stop-opacity="1" stop-color="rgb(83.261108%, 49.113464%, 28.257751%)" offset="0.679688"/><stop stop-opacity="1" stop-color="rgb(83.740234%, 49.336243%, 28.312683%)" offset="0.683594"/><stop stop-opacity="1" stop-color="rgb(84.220886%, 49.559021%, 28.369141%)" offset="0.6875"/><stop stop-opacity="1" stop-color="rgb(84.700012%, 49.781799%, 28.424072%)" offset="0.691406"/><stop stop-opacity="1" stop-color="rgb(85.180664%, 50.004578%, 28.48053%)" offset="0.695312"/><stop stop-opacity="1" stop-color="rgb(85.65979%, 50.227356%, 28.535461%)" offset="0.699219"/><stop stop-opacity="1" stop-color="rgb(86.138916%, 50.45166%, 28.591919%)" offset="0.703125"/><stop stop-opacity="1" stop-color="rgb(86.618042%, 50.674438%, 28.646851%)" offset="0.707031"/><stop stop-opacity="1" stop-color="rgb(87.098694%, 50.897217%, 28.703308%)" offset="0.710938"/><stop stop-opacity="1" stop-color="rgb(87.57782%, 51.119995%, 28.75824%)" offset="0.714844"/><stop stop-opacity="1" stop-color="rgb(88.056946%, 51.344299%, 28.814697%)" offset="0.71875"/><stop stop-opacity="1" stop-color="rgb(88.536072%, 51.567078%, 28.869629%)" offset="0.722656"/><stop stop-opacity="1" stop-color="rgb(89.016724%, 51.789856%, 28.926086%)" offset="0.726562"/><stop stop-opacity="1" stop-color="rgb(89.49585%, 52.012634%, 28.981018%)" offset="0.730469"/><stop stop-opacity="1" stop-color="rgb(89.976501%, 52.236938%, 29.037476%)" offset="0.734375"/><stop stop-opacity="1" stop-color="rgb(90.455627%, 52.459717%, 29.092407%)" offset="0.738281"/><stop stop-opacity="1" stop-color="rgb(90.934753%, 52.682495%, 29.147339%)" offset="0.742188"/><stop stop-opacity="1" stop-color="rgb(91.413879%, 52.905273%, 29.202271%)" offset="0.746094"/><stop stop-opacity="1" stop-color="rgb(91.894531%, 53.129578%, 29.258728%)" offset="0.75"/><stop stop-opacity="1" stop-color="rgb(92.373657%, 53.352356%, 29.31366%)" offset="0.753906"/><stop stop-opacity="1" stop-color="rgb(92.854309%, 53.575134%, 29.370117%)" offset="0.757812"/><stop stop-opacity="1" stop-color="rgb(93.333435%, 53.797913%, 29.425049%)" offset="0.761719"/><stop stop-opacity="1" stop-color="rgb(93.812561%, 54.020691%, 29.481506%)" offset="0.765625"/><stop stop-opacity="1" stop-color="rgb(94.291687%, 54.243469%, 29.536438%)" offset="0.769531"/><stop stop-opacity="1" stop-color="rgb(94.772339%, 54.467773%, 29.592896%)" offset="0.773438"/><stop stop-opacity="1" stop-color="rgb(95.251465%, 54.690552%, 29.647827%)" offset="0.777344"/><stop stop-opacity="1" stop-color="rgb(95.732117%, 54.91333%, 29.704285%)" offset="0.78125"/><stop stop-opacity="1" stop-color="rgb(96.211243%, 55.136108%, 29.759216%)" offset="0.785156"/><stop stop-opacity="1" stop-color="rgb(96.690369%, 55.360413%, 29.815674%)" offset="0.789062"/><stop stop-opacity="1" stop-color="rgb(97.169495%, 55.583191%, 29.870605%)" offset="0.792969"/><stop stop-opacity="1" stop-color="rgb(97.650146%, 55.805969%, 29.927063%)" offset="0.796875"/><stop stop-opacity="1" stop-color="rgb(98.129272%, 56.028748%, 29.981995%)" offset="0.800781"/><stop stop-opacity="1" stop-color="rgb(98.609924%, 56.253052%, 30.038452%)" offset="0.804688"/><stop stop-opacity="1" stop-color="rgb(99.08905%, 56.47583%, 30.093384%)" offset="0.808594"/><stop stop-opacity="1" stop-color="rgb(99.568176%, 56.698608%, 30.149841%)" offset="0.8125"/><stop stop-opacity="1" stop-color="rgb(99.783325%, 56.797791%, 30.174255%)" offset="0.816406"/><stop stop-opacity="1" stop-color="rgb(100%, 56.898499%, 30.198669%)" offset="0.820313"/><stop stop-opacity="1" stop-color="rgb(100%, 56.898499%, 30.198669%)" offset="0.828125"/><stop stop-opacity="1" stop-color="rgb(100%, 56.898499%, 30.198669%)" offset="0.84375"/><stop stop-opacity="1" stop-color="rgb(100%, 56.898499%, 30.198669%)" offset="0.875"/><stop stop-opacity="1" stop-color="rgb(100%, 56.898499%, 30.198669%)" offset="1"/></linearGradient></defs><g clip-path="url(#3cdfd60c26)"><path fill="#393536" d="M 149.582031 163.210938 L 149.582031 150.277344 C 152.203125 150.136719 154.179688 149.742188 155.507812 149.09375 C 156.839844 148.445312 157.988281 147.363281 158.957031 145.835938 C 159.929688 144.308594 160.59375 142.394531 160.953125 140.097656 C 161.238281 138.371094 161.382812 135.375 161.382812 131.097656 C 161.382812 124.132812 161.707031 119.273438 162.351562 116.527344 C 163 113.78125 164.167969 111.570312 165.855469 109.902344 C 167.542969 108.230469 170.003906 106.910156 173.238281 105.941406 C 175.429688 105.292969 178.878906 104.972656 183.585938 104.972656 L 186.441406 104.972656 L 186.441406 117.847656 C 182.453125 117.847656 179.894531 118.070312 178.761719 118.519531 C 177.628906 118.96875 176.796875 119.652344 176.257812 120.566406 C 175.71875 121.484375 175.449219 123.054688 175.449219 125.28125 C 175.449219 127.542969 175.285156 131.835938 174.964844 138.15625 C 174.785156 141.710938 174.316406 144.59375 173.5625 146.804688 C 172.808594 149.011719 171.847656 150.835938 170.679688 152.273438 C 169.511719 153.707031 167.722656 155.199219 165.316406 156.746094 C 167.4375 157.964844 169.171875 159.394531 170.519531 161.027344 C 171.863281 162.660156 172.898438 164.644531 173.617188 166.980469 C 174.335938 169.316406 174.800781 172.441406 175.015625 176.351562 C 175.269531 182.316406 175.394531 186.121094 175.394531 187.773438 C 175.394531 190.144531 175.679688 191.796875 176.257812 192.730469 C 176.832031 193.664062 177.703125 194.375 178.871094 194.859375 C 180.035156 195.34375 182.5625 195.585938 186.441406 195.585938 L 186.441406 208.515625 L 183.585938 208.515625 C 178.734375 208.515625 175.015625 208.128906 172.429688 207.359375 C 169.84375 206.585938 167.660156 205.300781 165.882812 203.507812 C 164.105469 201.710938 162.910156 199.492188 162.300781 196.851562 C 161.6875 194.210938 161.382812 190.054688 161.382812 184.382812 C 161.382812 177.773438 161.09375 173.480469 160.519531 171.503906 C 159.730469 168.632812 158.535156 166.574219 156.9375 165.335938 C 155.339844 164.097656 152.886719 163.386719 149.582031 163.210938 " fill-opacity="1" fill-rule="nonzero"/></g><path fill="#eeb30d" d="M 231.335938 131.792969 L 222.902344 131.792969 L 222.902344 123.363281 L 231.335938 123.363281 L 231.335938 131.792969 " fill-opacity="1" fill-rule="nonzero"/><path fill="#eeb30d" d="M 229.34375 148.65625 L 222.902344 148.65625 L 222.902344 142.214844 L 229.34375 142.214844 L 229.34375 148.65625 " fill-opacity="1" fill-rule="nonzero"/><g clip-path="url(#4460e47d78)"><path fill="#eeb30d" d="M 204.808594 138.238281 L 204.808594 131.792969 L 211.253906 131.792969 L 211.253906 138.238281 Z M 221.199219 168.355469 C 219.582031 167.117188 218.378906 165.0625 217.589844 162.1875 C 217.15625 160.566406 216.894531 157.460938 216.8125 152.875 L 211.253906 152.875 L 211.253906 144.441406 L 216.6875 144.441406 C 216.554688 141.191406 216.269531 138.65625 215.835938 136.839844 C 215.210938 134.203125 214.015625 131.976562 212.253906 130.160156 C 210.492188 128.347656 208.320312 127.0625 205.734375 126.308594 C 203.148438 125.554688 199.429688 125.179688 194.578125 125.179688 L 191.722656 125.179688 L 191.722656 138.054688 C 195.78125 138.054688 198.394531 138.296875 199.5625 138.78125 C 200.730469 139.265625 201.539062 139.957031 201.988281 140.855469 C 202.4375 141.753906 202.679688 143.546875 202.714844 146.242188 C 202.894531 154.789062 203.183594 160.320312 203.578125 162.835938 C 204.1875 166.5 205.335938 169.515625 207.027344 171.886719 C 208.246094 173.539062 210.1875 175.226562 212.847656 176.949219 C 210.800781 178.136719 209.117188 179.507812 207.808594 181.070312 C 206.496094 182.632812 205.445312 184.539062 204.65625 186.78125 C 203.867188 189.027344 203.382812 192.015625 203.199219 195.75 C 202.914062 201.929688 202.761719 206.113281 202.742188 208.304688 C 202.722656 210.496094 202.4375 212.046875 201.878906 212.964844 C 201.324219 213.878906 200.453125 214.582031 199.265625 215.066406 C 198.082031 215.550781 195.566406 215.792969 191.722656 215.792969 L 191.722656 228.722656 L 194.578125 228.722656 C 199.285156 228.722656 202.734375 228.398438 204.925781 227.753906 C 208.195312 226.78125 210.671875 225.464844 212.363281 223.792969 C 214.050781 222.125 215.210938 219.90625 215.835938 217.140625 C 216.464844 214.375 216.78125 209.507812 216.78125 202.539062 C 216.78125 198.300781 216.925781 195.320312 217.210938 193.597656 C 217.605469 191.300781 218.28125 189.386719 219.234375 187.859375 C 220.183594 186.332031 221.324219 185.246094 222.65625 184.601562 C 223.984375 183.953125 225.960938 183.558594 228.582031 183.414062 L 228.582031 170.484375 C 225.277344 170.304688 222.816406 169.59375 221.199219 168.355469 " fill-opacity="1" fill-rule="nonzero"/></g><g clip-path="url(#641d02d9c2)"><path fill="#eeb30d" d="M 247.78125 115.417969 L 241.335938 115.417969 L 241.335938 108.976562 L 247.78125 108.976562 L 247.78125 115.417969 " fill-opacity="1" fill-rule="nonzero"/></g><path fill="#eeb30d" d="M 215.46875 123.363281 L 203.441406 123.363281 L 203.441406 111.335938 L 215.46875 111.335938 L 215.46875 123.363281 " fill-opacity="1" fill-rule="nonzero"/><g clip-path="url(#a60489db17)"><g clip-path="url(#d833a84a74)"><g clip-path="url(#4723dd27b2)"><g clip-path="url(#326ca936a7)"><g clip-path="url(#e719abe753)"><path fill="url(#bd62906d04)" d="M 230.980469 81.222656 L 194.980469 30.007812 L 143.761719 66.007812 L 179.765625 117.226562 Z M 230.980469 81.222656 " fill-rule="nonzero"/></g></g></g></g></g><g fill="#393536" fill-opacity="1"><g transform="translate(87.819241, 289.386789)"><g><path d="M 3.734375 -33.34375 L 11 -33.34375 L 11 0 L 3.734375 0 Z M 3.734375 -33.34375 "/></g></g></g><g fill="#393536" fill-opacity="1"><g transform="translate(111.855143, 289.386789)"><g><path d="M 1.984375 -16.03125 L 13.6875 -16.03125 L 13.6875 -9.859375 L 1.984375 -9.859375 Z M 1.984375 -16.03125 "/></g></g></g><g fill="#393536" fill-opacity="1"><g transform="translate(136.836559, 289.386789)"><g><path d="M 10.703125 -26.53125 L 1 -26.53125 L 1 -33.34375 L 27.671875 -33.34375 L 27.671875 -26.53125 L 17.96875 -26.53125 L 17.96875 0 L 10.703125 0 Z M 10.703125 -26.53125 "/></g></g></g><g fill="#393536" fill-opacity="1"><g transform="translate(174.806332, 289.386789)"><g><path d="M 3.734375 -33.34375 L 22.796875 -33.34375 L 22.796875 -26.53125 L 11 -26.53125 L 11 -20.40625 L 19.609375 -20.40625 L 19.609375 -13.59375 L 11 -13.59375 L 11 -6.8125 L 23.046875 -6.8125 L 23.046875 0 L 3.734375 0 Z M 3.734375 -33.34375 "/></g></g></g><g fill="#393536" fill-opacity="1"><g transform="translate(209.640993, 289.386789)"><g><path d="M 19.0625 0.703125 C 16.570312 0.703125 14.265625 0.269531 12.140625 -0.59375 C 10.015625 -1.457031 8.179688 -2.660156 6.640625 -4.203125 C 5.097656 -5.742188 3.894531 -7.578125 3.03125 -9.703125 C 2.164062 -11.828125 1.734375 -14.132812 1.734375 -16.625 C 1.734375 -19.113281 2.171875 -21.414062 3.046875 -23.53125 C 3.929688 -25.65625 5.144531 -27.5 6.6875 -29.0625 C 8.226562 -30.625 10.050781 -31.84375 12.15625 -32.71875 C 14.269531 -33.601562 16.554688 -34.046875 19.015625 -34.046875 C 21.597656 -34.046875 24 -33.546875 26.21875 -32.546875 C 28.445312 -31.546875 30.375 -30.117188 32 -28.265625 L 26.921875 -23.34375 C 25.960938 -24.46875 24.828125 -25.351562 23.515625 -26 C 22.203125 -26.644531 20.765625 -26.96875 19.203125 -26.96875 C 17.773438 -26.96875 16.460938 -26.710938 15.265625 -26.203125 C 14.078125 -25.691406 13.039062 -24.976562 12.15625 -24.0625 C 11.28125 -23.144531 10.601562 -22.054688 10.125 -20.796875 C 9.644531 -19.535156 9.40625 -18.175781 9.40625 -16.71875 C 9.40625 -15.226562 9.65625 -13.851562 10.15625 -12.59375 C 10.65625 -11.332031 11.34375 -10.234375 12.21875 -9.296875 C 13.09375 -8.367188 14.144531 -7.648438 15.375 -7.140625 C 16.601562 -6.628906 17.945312 -6.375 19.40625 -6.375 C 21 -6.375 22.457031 -6.703125 23.78125 -7.359375 C 25.113281 -8.023438 26.242188 -8.921875 27.171875 -10.046875 L 32.25 -5.21875 C 30.65625 -3.332031 28.738281 -1.875 26.5 -0.84375 C 24.257812 0.1875 21.78125 0.703125 19.0625 0.703125 Z M 19.0625 0.703125 "/></g></g></g><g fill="#393536" fill-opacity="1"><g transform="translate(252.189049, 289.386789)"><g><path d="M 3.734375 -33.34375 L 11 -33.34375 L 11 -20.296875 L 23.984375 -20.296875 L 23.984375 -33.34375 L 31.25 -33.34375 L 31.25 0 L 23.984375 0 L 23.984375 -13.484375 L 11 -13.484375 L 11 0 L 3.734375 0 Z M 3.734375 -33.34375 "/></g></g></g><g fill="#eeb30d" fill-opacity="1"><g transform="translate(159.632223, 325.280139)"><g><path d="M 1.125 0 L 1.125 -10.640625 L 2.40625 -10.640625 L 2.40625 -1.015625 L 7.359375 -1.015625 L 7.359375 0 Z M 1.125 0 "/></g></g></g><g fill="#eeb30d" fill-opacity="1"><g transform="translate(179.774013, 325.280139)"><g><path d="M 5.953125 0.1875 C 4.910156 0.1875 3.992188 -0.0390625 3.203125 -0.5 C 2.421875 -0.96875 1.8125 -1.613281 1.375 -2.4375 C 0.9375 -3.269531 0.71875 -4.234375 0.71875 -5.328125 C 0.71875 -6.410156 0.9375 -7.363281 1.375 -8.1875 C 1.8125 -9.007812 2.421875 -9.65625 3.203125 -10.125 C 3.992188 -10.59375 4.910156 -10.828125 5.953125 -10.828125 C 7.015625 -10.828125 7.9375 -10.59375 8.71875 -10.125 C 9.5 -9.65625 10.109375 -9.007812 10.546875 -8.1875 C 10.984375 -7.363281 11.203125 -6.410156 11.203125 -5.328125 C 11.203125 -4.234375 10.984375 -3.269531 10.546875 -2.4375 C 10.109375 -1.613281 9.5 -0.96875 8.71875 -0.5 C 7.9375 -0.0390625 7.015625 0.1875 5.953125 0.1875 Z M 5.953125 -0.9375 C 6.734375 -0.9375 7.421875 -1.109375 8.015625 -1.453125 C 8.609375 -1.804688 9.066406 -2.3125 9.390625 -2.96875 C 9.722656 -3.625 9.890625 -4.410156 9.890625 -5.328125 C 9.890625 -6.234375 9.722656 -7.007812 9.390625 -7.65625 C 9.066406 -8.3125 8.609375 -8.8125 8.015625 -9.15625 C 7.421875 -9.507812 6.734375 -9.6875 5.953125 -9.6875 C 5.171875 -9.6875 4.484375 -9.507812 3.890625 -9.15625 C 3.304688 -8.8125 2.847656 -8.3125 2.515625 -7.65625 C 2.179688 -7.007812 2.015625 -6.234375 2.015625 -5.328125 C 2.015625 -4.410156 2.179688 -3.625 2.515625 -2.96875 C 2.847656 -2.3125 3.304688 -1.804688 3.890625 -1.453125 C 4.484375 -1.109375 5.171875 -0.9375 5.953125 -0.9375 Z M 5.953125 -0.9375 "/></g></g></g><g fill="#eeb30d" fill-opacity="1"><g transform="translate(203.851258, 325.280139)"><g><path d="M 5.703125 0.1875 C 4.710938 0.1875 3.84375 -0.0390625 3.09375 -0.5 C 2.34375 -0.96875 1.757812 -1.613281 1.34375 -2.4375 C 0.925781 -3.257812 0.71875 -4.21875 0.71875 -5.3125 C 0.71875 -6.394531 0.925781 -7.347656 1.34375 -8.171875 C 1.757812 -9.003906 2.351562 -9.65625 3.125 -10.125 C 3.90625 -10.59375 4.828125 -10.828125 5.890625 -10.828125 C 7.078125 -10.828125 8.066406 -10.535156 8.859375 -9.953125 C 9.660156 -9.378906 10.179688 -8.585938 10.421875 -7.578125 L 8.9375 -7.578125 C 8.800781 -8.210938 8.460938 -8.71875 7.921875 -9.09375 C 7.390625 -9.46875 6.710938 -9.65625 5.890625 -9.65625 C 5.109375 -9.65625 4.425781 -9.476562 3.84375 -9.125 C 3.269531 -8.78125 2.820312 -8.28125 2.5 -7.625 C 2.175781 -6.976562 2.015625 -6.207031 2.015625 -5.3125 C 2.015625 -4.40625 2.171875 -3.625 2.484375 -2.96875 C 2.804688 -2.320312 3.242188 -1.820312 3.796875 -1.46875 C 4.359375 -1.125 5.007812 -0.953125 5.75 -0.953125 C 6.882812 -0.953125 7.738281 -1.285156 8.3125 -1.953125 C 8.894531 -2.617188 9.222656 -3.53125 9.296875 -4.6875 L 6.234375 -4.6875 L 6.234375 -5.6875 L 10.609375 -5.6875 L 10.609375 0 L 9.4375 0 L 9.328125 -1.75 C 8.941406 -1.132812 8.46875 -0.65625 7.90625 -0.3125 C 7.351562 0.0195312 6.617188 0.1875 5.703125 0.1875 Z M 5.703125 0.1875 "/></g></g></g></svg>